<svg xmlns="http://www.w3.org/2000/svg" width="12" height="14"><path d="M12 10.733V3.117a.36.36 0 0 0-.14-.29.278.278 0 0 0-.293-.023L8.721 4.152V1.985a.361.361 0 0 0-.14-.289.297.297 0 0 0-.292-.032L5.443 3.012V.846a.361.361 0 0 0-.14-.29.297.297 0 0 0-.293-.031L.19 2.804a.342.342 0 0 0-.19.313v7.616c0 .112.051.224.14.289.05.04.11.056.168.056.044 0 .08-.008.125-.024l2.846-1.348v2.166c0 .113.051.225.14.29.05.04.11.055.168.055.044 0 .08-.008.124-.024l2.846-1.348v2.167c0 .112.052.225.14.289.051.04.11.056.169.056.044 0 .08-.008.124-.024l4.812-2.28a.348.348 0 0 0 .198-.32Zm-.623-.225L7.188 12.49v-1.942l1.343-.634a.342.342 0 0 0 .19-.313V5.637l-.623.297v3.435l-.91.433-.623.297L3.91 11.35V9.409l1.342-.634a.342.342 0 0 0 .19-.313V4.497l-.623.297v3.435l-.91.433-.623.297-2.655 1.252v-6.87L4.819 1.36v1.95l-1.342.634a.342.342 0 0 0-.19.313v3.957l.623-.297V4.48l.91-.433.623-.297 2.655-1.252V4.44l-1.343.634a.342.342 0 0 0-.19.313v3.956l.623-.296V5.62l.91-.434.623-.297 2.655-1.252v6.87Z" style="fill:#080820"/></svg>