<?xml version="1.0" encoding="utf-8"?>
<svg version="1.1" id="Capa_1" x="0px" y="0px" viewBox="0 0 550 160" style="enable-background:new 0 0 180.6 218.8;" xmlns="http://www.w3.org/2000/svg">
  <path d="M 172 127.5 L 172 32.6 C 172 31.2 171.3 29.8 170.1 29 C 168.9 28.2 167.4 28.1 166.1 28.7 L 127.3 45.5 L 127.3 18.5 C 127.3 17.1 126.6 15.7 125.4 14.9 C 124.2 14.1 122.7 14 121.4 14.5 L 82.6 31.3 L 82.6 4.3 C 82.6 2.9 81.9 1.5 80.7 0.7 C 79.5 -0.1 78 -0.2 76.7 0.3 L 11 28.7 C 9.4 29.4 8.4 30.9 8.4 32.6 L 8.4 127.5 C 8.4 128.9 9.1 130.3 10.3 131.1 C 11 131.6 11.8 131.8 12.6 131.8 C 13.2 131.8 13.7 131.7 14.3 131.5 L 53.1 114.7 L 53.1 141.7 C 53.1 143.1 53.8 144.5 55 145.3 C 55.7 145.8 56.5 146 57.3 146 C 57.9 146 58.4 145.9 59 145.7 L 97.8 128.9 L 97.8 155.9 C 97.8 157.3 98.5 158.7 99.7 159.5 C 100.4 160 101.2 160.2 102 160.2 C 102.6 160.2 103.1 160.1 103.7 159.9 L 169.3 131.5 C 171 130.8 172 129.2 172 127.5 Z M 163.5 124.7 L 106.4 149.4 L 106.4 125.2 L 124.7 117.3 C 126.3 116.6 127.3 115.1 127.3 113.4 L 127.3 64 L 118.8 67.7 L 118.8 110.5 L 106.4 115.9 L 97.9 119.6 L 61.7 135.2 L 61.7 111 L 80 103.1 C 81.6 102.4 82.6 100.9 82.6 99.2 L 82.6 49.8 L 74.1 53.5 L 74.1 96.3 L 61.7 101.7 L 53.2 105.4 L 17 121 L 17 35.4 L 74.1 10.7 L 74.1 35 L 55.8 42.9 C 54.2 43.6 53.2 45.1 53.2 46.8 L 53.2 96.1 L 61.7 92.4 L 61.7 49.6 L 74.1 44.2 L 82.6 40.5 L 118.8 24.9 L 118.8 49.1 L 100.5 57 C 98.9 57.7 97.9 59.2 97.9 60.9 L 97.9 110.2 L 106.4 106.5 L 106.4 63.8 L 118.8 58.4 L 127.3 54.7 L 163.5 39.1 L 163.5 124.7 Z" style="fill: rgb(8, 8, 32);"/>
  <g transform="matrix(1.787714, 0, 0, 1.787714, 221.356155, -272.984131)" style="">
    <g>
      <path d="M44.2,187.4c-2.3-7.1-9.4-11.4-20.1-11.4C9.1,176,0,184.7,0,197.4c0,13,9.1,21.5,23,21.5c16,0,22.9-8.6,22.9-20.5 c0-1.2,0-2.5-0.3-3.8H23.2v7h12.5c0.2,5.6-5.2,9.4-11.9,9.4c-8.6,0-13-5.3-13-13.6c0-8.3,4.5-13.8,12.3-13.8 c4.6,0,8.4,1.9,9.9,6.2L44.2,187.4z" style="fill: rgb(8, 8, 32);"/>
      <path d="M74.6,210.9c-7.6,0-12.4-5.3-12.4-13.5c0-8.3,4.8-13.5,12.4-13.5c7.6,0,12.4,5.2,12.4,13.5 C87,205.7,82.2,210.9,74.6,210.9z M74.6,218.8c14,0,23.1-8.3,23.1-21.4c0-13.1-9.1-21.4-23.1-21.4s-23.1,8.3-23.1,21.4 C51.6,210.5,60.7,218.8,74.6,218.8z" style="fill: rgb(8, 8, 32);"/>
      <path d="M125,210.7h-11.2v-10.3h11.3c4.2,0,6.3,2,6.3,5.1C131.4,208.4,129.4,210.7,125,210.7z M113.8,184.2h10.6 c4.3,0,5.9,2.1,5.9,4.6c0,2.6-1.4,4.9-5.9,4.9h-10.6V184.2z M133.4,196.5c5-1.2,7.6-4.7,7.6-9c0-5.9-4.3-10.3-13.8-10.3h-23.6 v40.5h24.1c9.9,0,14.4-5.1,14.4-11.5C142.1,200.9,139.1,197.4,133.4,196.5z" style="fill: rgb(8, 8, 32);"/>
      <polygon points="149.2,177.2 149.2,217.7 180.6,217.7 180.6,209.5 159.4,209.5 159.4,177.2 &#9;&#9;&#9;" style="fill: rgb(8, 8, 32);"/>
    </g>
  </g>
</svg>